# xmcd CD database file
#
# Track frame offsets:
#	150
#	22996
#	44850
#	63365
#	90548
#	119123
#	140114
#	161329
#	178748
#	199654
#	218442
#	233254
#
# Disc length: 3441 seconds
#
# Revision: 0
# Processed by: cddbd v1.5.2PL0 Copyright (c) Steve Scherf et al.
# Submitted via: CDex 1.70beta2
#
DISCID=a40d6f0c
DTITLE=Annette Neuffer Quintett - The Art Of Chet
DYEAR=2004
DGENRE=Jazz
TTITLE0=Line For Lyons
TTITLE1=Look For The Silver Lining
TTITLE2=The Art Of Chet
TTITLE3=The Song Is You
TTITLE4=Remembering and That Old Feeling
TTITLE5=But Not For Me
TTITLE6=How Long Has This Been Going On
TTITLE7=Long Ago And Far Away
TTITLE8=Chet's Blues
TTITLE9=Dinner
TTITLE10=It Could Happen To You
TTITLE11=Time After Time
EXTD=YEAR: 2004
EXTT0=
EXTT1=
EXTT2=
EXTT3=
EXTT4=
EXTT5=
EXTT6=
EXTT7=
EXTT8=
EXTT9=
EXTT10=
EXTT11=
PLAYORDER=
